<svg width="160" height="160" viewBox="0 0 160 160" fill="none" xmlns="http://www.w3.org/2000/svg">
  <rect width="160" height="160" rx="80" fill="#F3F4F6"/>
  <circle cx="80" cy="61" r="28" fill="#F1C8AE"/>
  <path d="M50 120C50 99.0132 67.0132 82 88 82H92C112.987 82 130 99.0132 130 120V136H50V120Z" fill="#FFFFFF"/>
  <path d="M55 48C55 31.4315 68.4315 18 85 18C101.569 18 115 31.4315 115 48V64H55V48Z" fill="#1F2937"/>
  <path d="M74 94H106V136H74V94Z" fill="#FFFFFF"/>
  <path d="M90 98L95 106H85L90 98Z" fill="#111111"/>
  <path d="M63 112H117" stroke="#111111" stroke-width="6" stroke-linecap="round"/>
  <path d="M90 98V124" stroke="#111111" stroke-width="6" stroke-linecap="round"/>
  <path d="M61 95C66 92 70 92 74 95" stroke="#111111" stroke-width="4" stroke-linecap="round"/>
  <path d="M105 95C109 92 113 92 118 95" stroke="#111111" stroke-width="4" stroke-linecap="round"/>
</svg>
